<?xml version="1.0" standalone="no"?>
<!DOCTYPE svg PUBLIC "-//W3C//DTD SVG 20010904//EN"
 "http://www.w3.org/TR/2001/REC-SVG-20010904/DTD/svg10.dtd">
<svg version="1.0" xmlns="http://www.w3.org/2000/svg"
 width="700.000000pt" height="700.000000pt" viewBox="0 0 700.000000 700.000000"
 preserveAspectRatio="xMidYMid meet">
<metadata>
Created by potrace 1.14, written by Peter Selinger 2001-2017
</metadata>
<g transform="translate(0.000000,700.000000) scale(0.100000,-0.100000)"
fill="#000000" stroke="none">
<path d="M4317 5884 c-1 -1 -27 -4 -58 -7 -119 -13 -229 -67 -317 -157 -82
-83 -54 -34 -307 -525 -48 -93 -118 -228 -155 -300 -37 -71 -111 -215 -165
-320 -54 -104 -119 -230 -145 -280 -26 -49 -98 -189 -160 -310 -62 -121 -138
-269 -170 -330 -32 -60 -68 -141 -79 -180 -51 -164 -17 -356 86 -496 75 -102
122 -138 307 -233 l125 -64 95 187 95 188 -122 63 c-67 34 -132 71 -144 82
-28 26 -51 94 -46 132 2 17 41 100 85 185 101 195 200 387 313 606 48 94 118
229 155 300 37 72 107 207 155 300 253 492 343 663 360 688 20 28 63 47 107
47 31 0 84 -23 237 -101 411 -212 510 -263 626 -324 66 -34 210 -109 320 -165
110 -56 212 -114 228 -128 33 -31 50 -87 38 -128 -4 -16 -42 -94 -83 -174
-189 -364 -281 -542 -483 -935 -53 -104 -123 -239 -155 -300 -32 -60 -102
-195 -155 -300 -194 -377 -190 -370 -234 -391 -51 -24 -102 -13 -236 51 -66
31 -147 70 -180 85 -33 15 -95 44 -138 64 -42 20 -79 36 -81 36 -2 0 -9 -15
-17 -32 -7 -18 -42 -94 -77 -168 -93 -196 -89 -178 -39 -199 23 -10 92 -42
152 -71 414 -197 428 -202 570 -201 112 1 220 39 322 115 78 57 128 123 204
272 33 65 96 187 139 269 43 83 115 222 160 310 45 88 113 219 150 290 37 72
105 204 152 295 47 91 122 235 166 320 275 532 281 546 286 663 6 140 -34 265
-120 378 -42 55 -121 121 -179 151 -16 8 -106 54 -200 103 -93 48 -246 127
-340 175 -93 48 -222 115 -285 147 -567 294 -596 307 -713 316 -26 2 -48 2
-50 1z"/>
<path d="M2275 4791 c-113 -33 -200 -83 -277 -162 -59 -60 -74 -85 -183 -294
-48 -93 -120 -233 -160 -310 -40 -77 -116 -225 -170 -330 -54 -104 -124 -239
-155 -300 -32 -60 -104 -200 -160 -310 -56 -110 -122 -236 -145 -280 -69 -130
-183 -358 -195 -390 -38 -97 -41 -235 -8 -345 46 -157 150 -273 328 -364 63
-33 156 -80 205 -106 50 -26 191 -99 315 -163 124 -63 295 -152 380 -196 177
-92 415 -211 445 -222 178 -66 410 -15 553 120 77 73 98 105 227 356 178 346
254 493 325 630 37 72 114 220 170 330 57 110 128 247 158 305 192 368 320
630 327 670 33 193 -9 360 -125 499 -55 67 -116 113 -215 166 -38 21 -93 50
-121 66 l-52 29 -25 -42 c-13 -24 -55 -101 -92 -173 -38 -71 -72 -135 -77
-142 -5 -6 -5 -13 -1 -16 4 -3 49 -26 98 -53 50 -26 106 -58 126 -70 40 -25
79 -93 79 -138 0 -27 -124 -276 -455 -911 -34 -66 -104 -201 -155 -300 -206
-399 -241 -468 -344 -665 -120 -232 -120 -231 -163 -253 -57 -30 -85 -22 -281
79 -224 116 -431 223 -607 314 -71 37 -220 113 -330 170 -255 131 -260 134
-279 174 -35 74 -46 48 314 741 37 72 106 205 154 298 158 308 258 501 339
657 44 85 111 216 149 290 85 163 104 194 138 214 34 20 106 36 117 26 4 -5
107 -59 228 -120 121 -62 225 -116 230 -120 6 -4 20 -11 32 -14 19 -6 26 0 46
41 13 26 54 106 90 176 37 71 67 134 67 140 0 15 -549 293 -605 307 -61 15
-193 11 -260 -9z"/>
</g>
</svg>
