<?xml version="1.0" encoding="utf-8"?>
<!-- Generator: Adobe Illustrator 25.3.0, SVG Export Plug-In . SVG Version: 6.00 Build 0)  -->
<svg version="1.1" id="Слой_1" xmlns="http://www.w3.org/2000/svg" xmlns:xlink="http://www.w3.org/1999/xlink" x="0px" y="0px"
	 viewBox="0 0 500 500" style="enable-background:new 0 0 500 500;" xml:space="preserve">
<style type="text/css">
	.st0{fill:none;stroke:#000000;stroke-width:30;stroke-miterlimit:10;}
</style>
<path class="st0" d="M241,295l-17.11-8.66c-12.27-7.33-17.08-22.42-10.74-34.68l74.03-143.38c6.33-12.27,21.42-17.08,33.68-10.74
	l93.89,48.48c12.27,6.33,17.08,21.42,10.74,33.68l-74.03,143.38c-6.33,12.27-21.42,17.08-33.68,10.74L282,317"/>
<path class="st0" d="M260,214l16.38,8.72c12.27,7.33,17.08,22.42,10.74,34.68l-74.03,143.38c-6.33,12.27-21.42,17.08-33.68,10.74
	l-93.89-48.48c-12.27-6.33-17.08-21.42-10.74-33.68l74.03-143.38c6.33-12.27,21.42-17.08,30.68-13.74L218,192"/>
</svg>
