<?xml version="1.0" encoding="utf-8"?>
<!-- Generator: Adobe Illustrator 25.3.0, SVG Export Plug-In . SVG Version: 6.00 Build 0)  -->
<svg version="1.1" id="Слой_1" xmlns="http://www.w3.org/2000/svg" xmlns:xlink="http://www.w3.org/1999/xlink" x="0px" y="0px"
	 viewBox="0 0 500 500" style="enable-background:new 0 0 500 500;" xml:space="preserve">
<style type="text/css">
	.st0{fill:none;stroke:#000000;stroke-width:30;stroke-miterlimit:10;}
</style>
<path class="st0" d="M368.2,255.1c-24.4-14.4-56.1,0.1-87.7,6c-8.4,1.6-23,2.7-30.1,2.6c-8.4-0.1-23.5-1.1-31.8-2.9
	c-33.4-7-58.3-23.6-85.5-6.6c-53.4,41.9-30.8,168.8-30,174.5c0,0.1,0.1,0.2,0.2,0.2h290.3c1.6,0,2.9-1.2,3.1-2.8
	C398.7,406.2,410.7,281.3,368.2,255.1z"/>
<path class="st0" d="M333.7,124.8c0,37.1-36.9,85.9-82.9,85.9S167,168.5,167,124.8S204.4,59,250.4,59S333.7,81,333.7,124.8z"/>
</svg>
